<svg xmlns="http://www.w3.org/2000/svg" width="18" height="19" viewBox="0 0 18 19"><g><g><path fill="#fff" d="M13.8 7.092c1.93 2.938 1.53 6.87-.949 9.351-2.9 2.901-7.613 2.904-10.508.012C-.559 13.55-.563 8.826 2.338 5.93a7.449 7.449 0 0 1 9.418-.912l.806.545 2.92-2.92-1.1-1.102.711-.712 1.102 1.102L17.427.7l.717.714-1.232 1.233 1.04 1.04-.714.71L16.2 3.358l-2.926 2.927zM3.07 15.746c2.504 2.502 6.578 2.502 9.084 0a6.43 6.43 0 0 0 0-9.085 6.43 6.43 0 0 0-9.084 0 6.433 6.433 0 0 0 0 9.085z"/></g></g></svg>